<!DOCTYPE svg PUBLIC "-//W3C//DTD SVG 20010904//EN" "http://www.w3.org/TR/2001/REC-SVG-20010904/DTD/svg10.dtd">
<svg version="1.0" xmlns="http://www.w3.org/2000/svg" width="216px" height="216px" viewBox="0 0 2160 2160" preserveAspectRatio="xMidYMid meet">
<g id="layer101" fill="#111110" stroke="none">
 <path d="M960 2124 c-287 -41 -454 -119 -637 -297 -157 -152 -254 -327 -298 -536 -81 -385 63 -792 366 -1037 245 -199 570 -277 882 -213 115 23 137 32 137 58 0 26 86 62 131 55 47 -7 129 44 129 80 0 33 92 112 125 108 46 -6 175 173 243 338 89 219 96 519 16 742 -34 93 -65 156 -121 240 l-44 68 31 45 c37 53 117 120 176 146 23 11 44 27 46 36 9 40 -3 53 -75 75 -61 20 -93 23 -217 23 -127 -1 -154 -4 -219 -26 l-74 -24 -59 27 c-147 70 -394 112 -538 92z"/>
 </g>
<g id="layer102" fill="#512f3a" stroke="none">
 <path d="M1018 2123 c23 -2 59 -2 80 0 20 2 1 4 -43 4 -44 0 -61 -2 -37 -4z"/>
 <path d="M903 2113 c9 -2 25 -2 35 0 9 3 1 5 -18 5 -19 0 -27 -2 -17 -5z"/>
 <path d="M1173 2113 c9 -2 25 -2 35 0 9 3 1 5 -18 5 -19 0 -27 -2 -17 -5z"/>
 <path d="M775 2090 c-25 -11 1 -11 35 0 20 6 21 8 5 8 -11 0 -29 -3 -40 -8z"/>
 <path d="M1391 2066 c36 -13 88 -34 116 -48 l50 -24 64 22 c35 12 59 23 53 23 -6 1 -36 -8 -66 -18 -31 -11 -60 -15 -64 -11 -12 12 -153 67 -189 74 -16 4 0 -4 36 -18z"/>
 <path d="M601 2025 c-202 -97 -388 -280 -488 -480 -17 -33 -33 -71 -37 -85 -4 -14 9 7 28 47 108 227 270 393 490 503 113 57 119 68 7 15z"/>
 <path d="M1763 2053 c15 -2 37 -2 50 0 12 2 0 4 -28 4 -27 0 -38 -2 -22 -4z"/>
 <path d="M1903 2053 c15 -2 37 -2 50 0 12 2 0 4 -28 4 -27 0 -38 -2 -22 -4z"/>
 <path d="M915 2030 c-203 -31 -393 -128 -540 -275 -369 -368 -379 -966 -24 -1340 168 -177 348 -272 578 -306 106 -15 260 -7 364 20 42 11 84 18 92 15 8 -4 15 -19 15 -34 0 -22 -6 -31 -27 -38 -16 -6 -22 -11 -15 -11 24 -2 52 19 52 38 0 26 86 62 131 55 47 -7 129 44 129 80 0 33 92 112 125 108 17 -2 35 11 72 52 45 52 143 203 143 222 0 5 -19 -23 -43 -63 -52 -88 -132 -192 -154 -200 -19 -7 -47 8 -51 29 -1 7 20 42 47 76 281 349 295 831 35 1179 -30 40 -54 79 -54 86 0 26 76 132 133 185 32 29 51 54 44 57 -72 22 -226 8 -339 -32 l-78 -26 -47 25 c-162 87 -399 127 -588 98z m55 -851 c16 -28 75 -52 111 -44 16 4 40 20 53 36 14 16 29 29 33 29 31 0 103 -112 103 -160 0 -19 -6 -20 -215 -20 l-214 0 5 33 c12 60 74 147 106 147 4 0 12 -9 18 -21z m-173 -313 c27 -23 28 -28 28 -115 0 -80 -3 -93 -22 -112 -31 -32 -80 -30 -110 5 -20 24 -23 37 -23 112 0 77 2 87 25 109 31 32 66 32 102 1z m620 0 c27 -23 28 -28 28 -114 0 -95 -8 -116 -52 -133 -27 -10 -70 4 -89 29 -9 11 -13 49 -14 105 0 80 2 90 25 112 31 32 66 32 102 1z m241 -627 c3 -22 -4 -31 -43 -53 -56 -33 -89 -31 -93 5 -3 22 5 31 40 53 55 33 92 31 96 -5z"/>
 <path d="M2070 1919 c-73 -45 -127 -95 -166 -151 l-27 -38 47 -70 c59 -88 108 -193 140 -301 14 -46 25 -76 25 -65 1 26 -54 186 -85 248 -14 29 -46 83 -71 120 l-44 68 31 45 c37 53 117 120 178 147 23 10 42 23 42 28 0 13 5 15 -70 -31z"/>
 <path d="M35 1340 c-4 -17 -5 -34 -2 -36 2 -3 7 10 11 27 8 42 0 50 -9 9z"/>
 <path d="M12 1210 c0 -19 2 -27 5 -17 2 9 2 25 0 35 -3 9 -5 1 -5 -18z"/>
 <path d="M2104 1070 c0 -74 1 -105 3 -67 2 37 2 97 0 135 -2 37 -3 6 -3 -68z"/>
 <path d="M3 1070 c0 -47 2 -66 4 -42 2 23 2 61 0 85 -2 23 -4 4 -4 -43z"/>
 <path d="M12 940 c0 -19 2 -27 5 -17 2 9 2 25 0 35 -3 9 -5 1 -5 -18z"/>
 <path d="M41 794 c-1 -17 35 -118 54 -150 17 -31 17 -28 -26 86 -15 41 -28 70 -28 64z"/>
 <path d="M2052 743 c-15 -48 -8 -55 8 -8 7 20 10 38 8 41 -3 2 -10 -13 -16 -33z"/>
 <path d="M2022 665 c-17 -37 -14 -45 4 -12 9 16 14 31 11 33 -2 2 -9 -7 -15 -21z"/>
 <path d="M110 608 c0 -4 19 -40 43 -79 89 -151 228 -286 383 -374 83 -48 217 -100 280 -110 21 -3 1 6 -45 20 -281 86 -475 242 -640 515 -11 19 -21 32 -21 28z"/>
 <path d="M993 23 c37 -2 97 -2 135 0 37 2 6 3 -68 3 -74 0 -105 -1 -67 -3z"/>
 </g>
<g id="layer103" fill="#5d5d5c" stroke="none">
 <path d="M1018 2123 c23 -2 59 -2 80 0 20 2 1 4 -43 4 -44 0 -61 -2 -37 -4z"/>
 <path d="M903 2113 c9 -2 25 -2 35 0 9 3 1 5 -18 5 -19 0 -27 -2 -17 -5z"/>
 <path d="M1173 2113 c9 -2 25 -2 35 0 9 3 1 5 -18 5 -19 0 -27 -2 -17 -5z"/>
 <path d="M1450 2045 c14 -8 30 -14 35 -14 6 0 -1 6 -15 14 -14 8 -29 14 -35 14 -5 0 1 -6 15 -14z"/>
 <path d="M1763 2053 c15 -2 37 -2 50 0 12 2 0 4 -28 4 -27 0 -38 -2 -22 -4z"/>
 <path d="M1903 2053 c15 -2 37 -2 50 0 12 2 0 4 -28 4 -27 0 -38 -2 -22 -4z"/>
 <path d="M574 2012 c-197 -105 -364 -274 -463 -469 -46 -92 -37 -91 12 2 110 209 255 353 462 462 44 23 76 42 70 42 -5 0 -42 -16 -81 -37z"/>
 <path d="M915 2030 c-203 -31 -393 -128 -540 -275 -174 -173 -270 -392 -282 -640 -15 -317 119 -604 379 -811 225 -180 528 -244 817 -174 47 11 91 18 98 16 7 -3 13 -19 13 -35 0 -23 -6 -32 -27 -39 -16 -6 -22 -11 -15 -11 24 -2 52 19 52 38 0 26 86 62 131 55 47 -7 129 44 129 80 0 31 92 113 122 108 12 -2 33 8 50 25 32 30 107 131 128 173 19 38 5 20 -39 -47 -51 -80 -109 -143 -130 -143 -19 0 -41 19 -41 35 0 6 28 47 61 90 270 349 275 836 13 1176 -24 32 -44 64 -44 72 0 26 76 131 133 185 32 29 51 54 44 57 -72 22 -226 8 -339 -32 l-78 -26 -47 25 c-162 87 -399 127 -588 98z m70 -860 c23 -24 37 -30 73 -30 35 0 49 6 74 30 16 17 33 30 37 30 4 0 21 -15 39 -32 33 -35 62 -94 62 -128 0 -19 -6 -20 -215 -20 l-214 0 5 33 c11 59 74 147 104 147 4 0 19 -13 35 -30z m-188 -304 c27 -23 28 -28 28 -115 0 -80 -3 -93 -22 -112 -31 -32 -80 -30 -110 5 -20 24 -23 37 -23 112 0 77 2 87 25 109 31 32 66 32 102 1z m620 0 c27 -23 28 -28 28 -114 0 -95 -8 -116 -52 -133 -27 -10 -70 4 -89 29 -9 11 -13 49 -14 105 0 80 2 90 25 112 31 32 66 32 102 1z m241 -628 c3 -22 -4 -31 -42 -53 -56 -33 -90 -30 -94 6 -3 22 5 31 40 53 55 33 92 31 96 -6z"/>
 <path d="M1998 1867 c-28 -23 -67 -64 -86 -90 l-34 -47 38 -55 c20 -30 39 -55 41 -55 6 0 -5 17 -40 67 l-29 41 31 46 c17 24 52 62 79 82 65 52 67 54 59 54 -3 0 -30 -19 -59 -43z"/>
 <path d="M1992 1545 c18 -35 34 -63 36 -61 4 5 -56 126 -63 126 -3 0 10 -29 27 -65z"/>
 <path d="M2061 1380 c0 -8 4 -24 9 -35 5 -13 9 -14 9 -5 0 8 -4 24 -9 35 -5 13 -9 14 -9 5z"/>
 <path d="M12 1210 c0 -19 2 -27 5 -17 2 9 2 25 0 35 -3 9 -5 1 -5 -18z"/>
 <path d="M2104 1070 c0 -74 1 -105 3 -67 2 37 2 97 0 135 -2 37 -3 6 -3 -68z"/>
 <path d="M3 1070 c0 -47 2 -66 4 -42 2 23 2 61 0 85 -2 23 -4 4 -4 -43z"/>
 <path d="M2052 743 c-15 -48 -8 -55 8 -8 7 20 10 38 8 41 -3 2 -10 -13 -16 -33z"/>
 <path d="M71 695 c0 -5 6 -21 14 -35 8 -14 14 -20 14 -15 0 6 -6 21 -14 35 -8 14 -14 21 -14 15z"/>
 <path d="M141 548 c22 -42 87 -134 105 -148 9 -8 1 7 -19 33 -21 27 -49 69 -63 93 -27 45 -44 62 -23 22z"/>
 <path d="M295 341 c42 -45 139 -125 190 -156 45 -28 28 -13 -45 41 -36 26 -92 72 -125 103 -45 41 -50 44 -20 12z"/>
 <path d="M520 165 c0 -7 121 -67 126 -63 2 2 -26 18 -61 36 -36 17 -65 30 -65 27z"/>
 <path d="M755 60 c11 -5 27 -9 35 -9 9 0 8 4 -5 9 -11 5 -27 9 -35 9 -9 0 -8 -4 5 -9z"/>
 <path d="M993 23 c37 -2 97 -2 135 0 37 2 6 3 -68 3 -74 0 -105 -1 -67 -3z"/>
 </g>
<g id="layer104" fill="#9a9a99" stroke="none">
 <path d="M1018 2123 c23 -2 59 -2 80 0 20 2 1 4 -43 4 -44 0 -61 -2 -37 -4z"/>
 <path d="M915 2030 c-321 -49 -596 -256 -735 -554 -246 -525 36 -1153 595 -1329 168 -53 317 -57 507 -15 92 20 99 20 116 4 18 -15 22 -15 66 5 26 11 55 18 63 15 13 -5 14 -4 4 8 -23 27 -8 58 41 88 57 35 88 31 88 -11 0 -15 -6 -33 -12 -41 -11 -12 -10 -12 5 -1 9 7 17 24 17 37 0 32 93 110 129 107 25 -2 25 -2 2 5 -29 9 -47 34 -38 53 4 8 32 46 62 84 149 189 225 461 195 697 -25 192 -73 305 -225 524 -16 23 31 100 111 182 39 41 66 75 60 77 -73 22 -226 7 -338 -32 l-78 -26 -47 25 c-162 87 -399 127 -588 98z m72 -860 c25 -23 43 -30 74 -30 32 0 47 7 71 30 16 17 33 30 37 30 4 0 21 -15 39 -32 33 -35 62 -94 62 -128 0 -19 -6 -20 -215 -20 l-214 0 5 33 c8 42 48 112 76 132 28 19 25 20 65 -15z m-190 -304 c27 -23 28 -28 28 -115 0 -80 -3 -93 -22 -112 -31 -32 -80 -30 -110 5 -20 24 -23 37 -23 112 0 77 2 87 25 109 31 32 66 32 102 1z m620 0 c27 -23 28 -28 28 -114 0 -95 -8 -116 -52 -133 -27 -10 -70 4 -89 29 -9 11 -13 49 -14 105 0 80 2 90 25 112 31 32 66 32 102 1z"/>
 <path d="M3 1070 c0 -47 2 -66 4 -42 2 23 2 61 0 85 -2 23 -4 4 -4 -43z"/>
 <path d="M310 325 c30 -30 57 -55 59 -55 3 0 -19 25 -49 55 -30 30 -57 55 -59 55 -3 0 19 -25 49 -55z"/>
 </g>
<g id="layer105" fill="#fcdd04" stroke="none">
 <path d="M915 2030 c-203 -31 -393 -128 -540 -275 -268 -267 -354 -660 -225 -1018 106 -291 367 -523 680 -603 107 -27 364 -26 468 3 71 19 74 19 96 2 23 -18 25 -18 74 3 44 19 51 25 46 44 -5 18 3 29 43 58 51 37 90 46 99 21 5 -11 19 -3 59 31 48 41 53 50 48 78 -4 26 4 41 52 101 68 84 147 240 177 350 30 111 32 364 4 475 -34 132 -99 268 -178 371 -15 20 -28 43 -28 51 0 26 76 132 133 186 32 29 51 54 44 57 -72 22 -226 8 -339 -32 l-78 -26 -47 25 c-162 87 -399 127 -588 98z m72 -860 c25 -23 43 -30 74 -30 32 0 47 7 71 30 16 17 33 30 37 30 4 0 21 -15 39 -32 33 -35 62 -94 62 -128 0 -19 -6 -20 -215 -20 l-214 0 5 33 c8 42 48 112 76 132 28 19 25 20 65 -15z m-190 -304 c27 -23 28 -28 28 -115 0 -80 -3 -93 -22 -112 -31 -32 -80 -30 -110 5 -20 24 -23 37 -23 112 0 77 2 87 25 109 31 32 66 32 102 1z m620 0 c27 -23 28 -28 28 -114 0 -95 -8 -116 -52 -133 -27 -10 -70 4 -89 29 -9 11 -13 49 -14 105 0 80 2 90 25 112 31 32 66 32 102 1z"/>
 <path d="M310 325 c30 -30 57 -55 59 -55 3 0 -19 25 -49 55 -30 30 -57 55 -59 55 -3 0 19 -25 49 -55z"/>
 </g>
<g id="layer106" fill="#dd6f95" stroke="none">
 <path d="M1894 1534 c49 -128 72 -307 56 -449 -14 -138 -41 -230 -100 -350 -215 -436 -714 -656 -1180 -521 -47 13 -86 23 -88 21 -5 -5 115 -60 169 -78 26 -9 84 -23 129 -33 108 -21 311 -15 418 13 71 19 74 19 96 2 23 -18 25 -18 74 3 44 19 51 25 46 44 -5 18 3 29 43 58 51 37 90 46 99 21 5 -11 19 -3 59 31 48 41 53 50 48 78 -4 26 4 41 52 101 68 84 147 240 177 350 30 111 32 364 4 475 -22 84 -82 237 -99 247 -7 4 -8 0 -3 -13z"/>
 <path d="M988 1218 c-36 -12 -35 -20 3 -52 45 -38 101 -36 142 6 l32 31 -30 13 c-36 15 -109 16 -147 2z"/>
 <path d="M310 325 c30 -30 57 -55 59 -55 3 0 -19 25 -49 55 -30 30 -57 55 -59 55 -3 0 19 -25 49 -55z"/>
 </g>
<g id="layer107" fill="#fafafa" stroke="none">
 <path d="M1894 1534 c49 -128 72 -307 56 -449 -14 -138 -41 -230 -100 -350 -215 -436 -714 -656 -1180 -521 -47 13 -86 23 -88 21 -5 -5 115 -60 169 -78 26 -9 84 -23 129 -33 108 -21 311 -15 418 13 71 19 74 19 96 2 23 -18 25 -18 74 3 44 19 51 25 46 44 -5 18 3 29 43 58 51 37 90 46 99 21 5 -11 19 -3 59 31 48 41 53 50 48 78 -4 26 4 41 52 101 68 84 147 240 177 350 30 111 32 364 4 475 -22 84 -82 237 -99 247 -7 4 -8 0 -3 -13z"/>
 <path d="M310 325 c30 -30 57 -55 59 -55 3 0 -19 25 -49 55 -30 30 -57 55 -59 55 -3 0 19 -25 49 -55z"/>
 </g>

</svg>